<?xml version="1.0" encoding="UTF-8" standalone="no"?>
<!DOCTYPE svg PUBLIC "-//W3C//DTD SVG 1.1//EN"
 "http://www.w3.org/Graphics/SVG/1.1/DTD/svg11.dtd">
<!-- Generated by graphviz version 2.40.1 (20161225.0304)
 -->
<!-- Title: %3 Pages: 1 -->
<svg width="1191pt" height="476pt"
 viewBox="0.00 0.00 1190.99 476.00" xmlns="http://www.w3.org/2000/svg" xmlns:xlink="http://www.w3.org/1999/xlink">
<g id="graph0" class="graph" transform="scale(1 1) rotate(0) translate(4 472)">
<title>%3</title>
<polygon fill="#ffffff" stroke="transparent" points="-4,4 -4,-472 1186.9938,-472 1186.9938,4 -4,4"/>
<!-- [root] aws_instance.web&#45;nginx -->
<g id="node1" class="node">
<title>[root] aws_instance.web&#45;nginx</title>
<polygon fill="none" stroke="#000000" points="749.5717,-252 595.5366,-252 595.5366,-216 749.5717,-216 749.5717,-252"/>
<text text-anchor="middle" x="672.5542" y="-229.8" font-family="Times,serif" font-size="14.00" fill="#000000">aws_instance.web&#45;nginx</text>
</g>
<!-- [root] aws_security_group.webnginx -->
<g id="node2" class="node">
<title>[root] aws_security_group.webnginx</title>
<polygon fill="none" stroke="#000000" points="338.5206,-180 150.5877,-180 150.5877,-144 338.5206,-144 338.5206,-180"/>
<text text-anchor="middle" x="244.5542" y="-157.8" font-family="Times,serif" font-size="14.00" fill="#000000">aws_security_group.webnginx</text>
</g>
<!-- [root] aws_instance.web&#45;nginx&#45;&gt;[root] aws_security_group.webnginx -->
<g id="edge1" class="edge">
<title>[root] aws_instance.web&#45;nginx&#45;&gt;[root] aws_security_group.webnginx</title>
<path fill="none" stroke="#000000" d="M595.3662,-221.3614C531.8127,-210.9121 439.0684,-195.5651 348.2192,-180.1066"/>
<polygon fill="#000000" stroke="#000000" points="348.7431,-176.6455 338.2973,-178.4165 347.5676,-183.5461 348.7431,-176.6455"/>
</g>
<!-- [root] var.AppName -->
<g id="node4" class="node">
<title>[root] var.AppName</title>
<ellipse fill="none" stroke="#000000" cx="438.5542" cy="-162" rx="81.6354" ry="18"/>
<text text-anchor="middle" x="438.5542" y="-157.8" font-family="Times,serif" font-size="14.00" fill="#000000">[root] var.AppName</text>
</g>
<!-- [root] aws_instance.web&#45;nginx&#45;&gt;[root] var.AppName -->
<g id="edge2" class="edge">
<title>[root] aws_instance.web&#45;nginx&#45;&gt;[root] var.AppName</title>
<path fill="none" stroke="#000000" d="M613.8081,-215.9243C577.7977,-204.8442 531.9028,-190.7226 496.1127,-179.7103"/>
<polygon fill="#000000" stroke="#000000" points="496.8898,-176.2876 486.3027,-176.6919 494.8311,-182.978 496.8898,-176.2876"/>
</g>
<!-- [root] var.Env -->
<g id="node5" class="node">
<title>[root] var.Env</title>
<ellipse fill="none" stroke="#000000" cx="598.5542" cy="-162" rx="59.9357" ry="18"/>
<text text-anchor="middle" x="598.5542" y="-157.8" font-family="Times,serif" font-size="14.00" fill="#000000">[root] var.Env</text>
</g>
<!-- [root] aws_instance.web&#45;nginx&#45;&gt;[root] var.Env -->
<g id="edge3" class="edge">
<title>[root] aws_instance.web&#45;nginx&#45;&gt;[root] var.Env</title>
<path fill="none" stroke="#000000" d="M653.8808,-215.8314C644.7369,-206.9346 633.5951,-196.0939 623.7131,-186.4789"/>
<polygon fill="#000000" stroke="#000000" points="626.0637,-183.8827 616.4557,-179.4177 621.1822,-188.8998 626.0637,-183.8827"/>
</g>
<!-- [root] var.ami_id -->
<g id="node6" class="node">
<title>[root] var.ami_id</title>
<ellipse fill="none" stroke="#000000" cx="746.5542" cy="-162" rx="70.0668" ry="18"/>
<text text-anchor="middle" x="746.5542" y="-157.8" font-family="Times,serif" font-size="14.00" fill="#000000">[root] var.ami_id</text>
</g>
<!-- [root] aws_instance.web&#45;nginx&#45;&gt;[root] var.ami_id -->
<g id="edge4" class="edge">
<title>[root] aws_instance.web&#45;nginx&#45;&gt;[root] var.ami_id</title>
<path fill="none" stroke="#000000" d="M691.2275,-215.8314C700.3714,-206.9346 711.5132,-196.0939 721.3952,-186.4789"/>
<polygon fill="#000000" stroke="#000000" points="723.9261,-188.8998 728.6526,-179.4177 719.0446,-183.8827 723.9261,-188.8998"/>
</g>
<!-- [root] var.instancetype -->
<g id="node7" class="node">
<title>[root] var.instancetype</title>
<ellipse fill="none" stroke="#000000" cx="924.5542" cy="-162" rx="89.8445" ry="18"/>
<text text-anchor="middle" x="924.5542" y="-157.8" font-family="Times,serif" font-size="14.00" fill="#000000">[root] var.instancetype</text>
</g>
<!-- [root] aws_instance.web&#45;nginx&#45;&gt;[root] var.instancetype -->
<g id="edge5" class="edge">
<title>[root] aws_instance.web&#45;nginx&#45;&gt;[root] var.instancetype</title>
<path fill="none" stroke="#000000" d="M735.8191,-215.9243C774.6315,-204.8351 824.1062,-190.6994 862.6631,-179.6832"/>
<polygon fill="#000000" stroke="#000000" points="864.0689,-182.9216 872.7226,-176.809 862.1458,-176.191 864.0689,-182.9216"/>
</g>
<!-- [root] var.subnetid -->
<g id="node8" class="node">
<title>[root] var.subnetid</title>
<ellipse fill="none" stroke="#000000" cx="1107.5542" cy="-162" rx="75.3794" ry="18"/>
<text text-anchor="middle" x="1107.5542" y="-157.8" font-family="Times,serif" font-size="14.00" fill="#000000">[root] var.subnetid</text>
</g>
<!-- [root] aws_instance.web&#45;nginx&#45;&gt;[root] var.subnetid -->
<g id="edge6" class="edge">
<title>[root] aws_instance.web&#45;nginx&#45;&gt;[root] var.subnetid</title>
<path fill="none" stroke="#000000" d="M749.8043,-223.4389C821.0687,-213.3826 929.7175,-197.2569 1023.5542,-180 1029.6186,-178.8847 1035.9152,-177.6602 1042.2106,-176.3908"/>
<polygon fill="#000000" stroke="#000000" points="1042.9766,-179.8067 1052.0692,-174.3684 1041.5698,-172.9495 1042.9766,-179.8067"/>
</g>
<!-- [root] provider.aws -->
<g id="node3" class="node">
<title>[root] provider.aws</title>
<polygon fill="none" stroke="#000000" points="78.5542,-108 -.0542,-90 78.5542,-72 157.1625,-90 78.5542,-108"/>
<text text-anchor="middle" x="78.5542" y="-85.8" font-family="Times,serif" font-size="14.00" fill="#000000">provider.aws</text>
</g>
<!-- [root] aws_security_group.webnginx&#45;&gt;[root] provider.aws -->
<g id="edge7" class="edge">
<title>[root] aws_security_group.webnginx&#45;&gt;[root] provider.aws</title>
<path fill="none" stroke="#000000" d="M202.6653,-143.8314C175.7526,-132.1584 141.125,-117.1391 115.2872,-105.9324"/>
<polygon fill="#000000" stroke="#000000" points="116.4164,-102.6072 105.8494,-101.8389 113.6309,-109.0291 116.4164,-102.6072"/>
</g>
<!-- [root] var.HostIp -->
<g id="node9" class="node">
<title>[root] var.HostIp</title>
<ellipse fill="none" stroke="#000000" cx="244.5542" cy="-90" rx="69.5909" ry="18"/>
<text text-anchor="middle" x="244.5542" y="-85.8" font-family="Times,serif" font-size="14.00" fill="#000000">[root] var.HostIp</text>
</g>
<!-- [root] aws_security_group.webnginx&#45;&gt;[root] var.HostIp -->
<g id="edge8" class="edge">
<title>[root] aws_security_group.webnginx&#45;&gt;[root] var.HostIp</title>
<path fill="none" stroke="#000000" d="M244.5542,-143.8314C244.5542,-136.131 244.5542,-126.9743 244.5542,-118.4166"/>
<polygon fill="#000000" stroke="#000000" points="248.0543,-118.4132 244.5542,-108.4133 241.0543,-118.4133 248.0543,-118.4132"/>
</g>
<!-- [root] var.PvtIp -->
<g id="node10" class="node">
<title>[root] var.PvtIp</title>
<ellipse fill="none" stroke="#000000" cx="396.5542" cy="-90" rx="64.7718" ry="18"/>
<text text-anchor="middle" x="396.5542" y="-85.8" font-family="Times,serif" font-size="14.00" fill="#000000">[root] var.PvtIp</text>
</g>
<!-- [root] aws_security_group.webnginx&#45;&gt;[root] var.PvtIp -->
<g id="edge9" class="edge">
<title>[root] aws_security_group.webnginx&#45;&gt;[root] var.PvtIp</title>
<path fill="none" stroke="#000000" d="M282.9102,-143.8314C304.688,-133.5156 331.9829,-120.5864 354.3643,-109.9847"/>
<polygon fill="#000000" stroke="#000000" points="356.086,-113.042 363.6251,-105.598 353.0894,-106.7158 356.086,-113.042"/>
</g>
<!-- [root] var.region -->
<g id="node16" class="node">
<title>[root] var.region</title>
<ellipse fill="none" stroke="#000000" cx="78.5542" cy="-18" rx="68.1287" ry="18"/>
<text text-anchor="middle" x="78.5542" y="-13.8" font-family="Times,serif" font-size="14.00" fill="#000000">[root] var.region</text>
</g>
<!-- [root] provider.aws&#45;&gt;[root] var.region -->
<g id="edge16" class="edge">
<title>[root] provider.aws&#45;&gt;[root] var.region</title>
<path fill="none" stroke="#000000" d="M78.5542,-71.8314C78.5542,-64.131 78.5542,-54.9743 78.5542,-46.4166"/>
<polygon fill="#000000" stroke="#000000" points="82.0543,-46.4132 78.5542,-36.4133 75.0543,-46.4133 82.0543,-46.4132"/>
</g>
<!-- [root] meta.count&#45;boundary (count boundary fixup) -->
<g id="node11" class="node">
<title>[root] meta.count&#45;boundary (count boundary fixup)</title>
<ellipse fill="none" stroke="#000000" cx="662.5542" cy="-378" rx="191.6931" ry="18"/>
<text text-anchor="middle" x="662.5542" y="-373.8" font-family="Times,serif" font-size="14.00" fill="#000000">[root] meta.count&#45;boundary (count boundary fixup)</text>
</g>
<!-- [root] output.instance_IP -->
<g id="node12" class="node">
<title>[root] output.instance_IP</title>
<ellipse fill="none" stroke="#000000" cx="458.5542" cy="-306" rx="98.5484" ry="18"/>
<text text-anchor="middle" x="458.5542" y="-301.8" font-family="Times,serif" font-size="14.00" fill="#000000">[root] output.instance_IP</text>
</g>
<!-- [root] meta.count&#45;boundary (count boundary fixup)&#45;&gt;[root] output.instance_IP -->
<g id="edge10" class="edge">
<title>[root] meta.count&#45;boundary (count boundary fixup)&#45;&gt;[root] output.instance_IP</title>
<path fill="none" stroke="#000000" d="M613.1714,-360.5708C583.1657,-349.9806 544.7944,-336.4377 513.7843,-325.493"/>
<polygon fill="#000000" stroke="#000000" points="514.5894,-322.0656 503.9946,-322.0378 512.2597,-328.6666 514.5894,-322.0656"/>
</g>
<!-- [root] output.instance_id -->
<g id="node13" class="node">
<title>[root] output.instance_id</title>
<ellipse fill="none" stroke="#000000" cx="672.5542" cy="-306" rx="97.5794" ry="18"/>
<text text-anchor="middle" x="672.5542" y="-301.8" font-family="Times,serif" font-size="14.00" fill="#000000">[root] output.instance_id</text>
</g>
<!-- [root] meta.count&#45;boundary (count boundary fixup)&#45;&gt;[root] output.instance_id -->
<g id="edge11" class="edge">
<title>[root] meta.count&#45;boundary (count boundary fixup)&#45;&gt;[root] output.instance_id</title>
<path fill="none" stroke="#000000" d="M665.0776,-359.8314C666.1471,-352.131 667.4188,-342.9743 668.6074,-334.4166"/>
<polygon fill="#000000" stroke="#000000" points="672.0877,-334.7997 669.9968,-324.4133 665.1543,-333.8367 672.0877,-334.7997"/>
</g>
<!-- [root] var.PvtIP -->
<g id="node14" class="node">
<title>[root] var.PvtIP</title>
<ellipse fill="none" stroke="#000000" cx="853.5542" cy="-306" rx="65.265" ry="18"/>
<text text-anchor="middle" x="853.5542" y="-301.8" font-family="Times,serif" font-size="14.00" fill="#000000">[root] var.PvtIP</text>
</g>
<!-- [root] meta.count&#45;boundary (count boundary fixup)&#45;&gt;[root] var.PvtIP -->
<g id="edge12" class="edge">
<title>[root] meta.count&#45;boundary (count boundary fixup)&#45;&gt;[root] var.PvtIP</title>
<path fill="none" stroke="#000000" d="M709.278,-360.3868C738.4497,-349.3902 775.9215,-335.2647 805.3653,-324.1654"/>
<polygon fill="#000000" stroke="#000000" points="806.8965,-327.3287 815.0192,-320.5263 804.4273,-320.7786 806.8965,-327.3287"/>
</g>
<!-- [root] output.instance_IP&#45;&gt;[root] aws_instance.web&#45;nginx -->
<g id="edge13" class="edge">
<title>[root] output.instance_IP&#45;&gt;[root] aws_instance.web&#45;nginx</title>
<path fill="none" stroke="#000000" d="M505.7823,-290.1102C536.2541,-279.858 576.2484,-266.402 609.4324,-255.2372"/>
<polygon fill="#000000" stroke="#000000" points="610.6828,-258.5094 619.0446,-252.0032 608.4506,-251.8748 610.6828,-258.5094"/>
</g>
<!-- [root] output.instance_id&#45;&gt;[root] aws_instance.web&#45;nginx -->
<g id="edge14" class="edge">
<title>[root] output.instance_id&#45;&gt;[root] aws_instance.web&#45;nginx</title>
<path fill="none" stroke="#000000" d="M672.5542,-287.8314C672.5542,-280.131 672.5542,-270.9743 672.5542,-262.4166"/>
<polygon fill="#000000" stroke="#000000" points="676.0543,-262.4132 672.5542,-252.4133 669.0543,-262.4133 676.0543,-262.4132"/>
</g>
<!-- [root] provider.aws (close) -->
<g id="node15" class="node">
<title>[root] provider.aws (close)</title>
<ellipse fill="none" stroke="#000000" cx="976.5542" cy="-378" rx="104.3276" ry="18"/>
<text text-anchor="middle" x="976.5542" y="-373.8" font-family="Times,serif" font-size="14.00" fill="#000000">[root] provider.aws (close)</text>
</g>
<!-- [root] provider.aws (close)&#45;&gt;[root] aws_instance.web&#45;nginx -->
<g id="edge15" class="edge">
<title>[root] provider.aws (close)&#45;&gt;[root] aws_instance.web&#45;nginx</title>
<path fill="none" stroke="#000000" d="M971.6602,-359.7384C965.1328,-339.0386 951.5194,-305.8601 927.5542,-288 901.206,-268.364 822.6844,-253.6281 759.6659,-244.5521"/>
<polygon fill="#000000" stroke="#000000" points="760.0865,-241.0769 749.6953,-243.1442 759.1077,-248.0081 760.0865,-241.0769"/>
</g>
<!-- [root] root -->
<g id="node17" class="node">
<title>[root] root</title>
<ellipse fill="none" stroke="#000000" cx="819.5542" cy="-450" rx="46.8976" ry="18"/>
<text text-anchor="middle" x="819.5542" y="-445.8" font-family="Times,serif" font-size="14.00" fill="#000000">[root] root</text>
</g>
<!-- [root] root&#45;&gt;[root] meta.count&#45;boundary (count boundary fixup) -->
<g id="edge17" class="edge">
<title>[root] root&#45;&gt;[root] meta.count&#45;boundary (count boundary fixup)</title>
<path fill="none" stroke="#000000" d="M789.283,-436.1177C766.9034,-425.8544 735.9853,-411.6754 710.2909,-399.892"/>
<polygon fill="#000000" stroke="#000000" points="711.6351,-396.658 701.0863,-395.6708 708.717,-403.0208 711.6351,-396.658"/>
</g>
<!-- [root] root&#45;&gt;[root] provider.aws (close) -->
<g id="edge18" class="edge">
<title>[root] root&#45;&gt;[root] provider.aws (close)</title>
<path fill="none" stroke="#000000" d="M849.8253,-436.1177C872.6811,-425.6361 904.4425,-411.0703 930.4503,-399.1432"/>
<polygon fill="#000000" stroke="#000000" points="932.1139,-402.2308 939.7446,-394.8808 929.1959,-395.868 932.1139,-402.2308"/>
</g>
</g>
</svg>
